# xmcd
#
# Track frame offsets:
#	150
#	14360
#	27647
#	45320
#	59465
#	78993
#	97631
#	112181
#	127616
#	145811
#	162411
#	177281
#	196351
#
# Disc length: 2850 seconds
#
# Revision: 0
# Processed by: cddbd v1.5.2PL0 Copyright (c) Steve Scherf et al.
# Submitted via: SynApp - FreeCDDB Version: 2.5
#
DISCID=a30b200d
DTITLE=Christina Stürmer - Lautlos
DYEAR=2008
DGENRE=Deutsch
TTITLE0=Augenblick am Tag
TTITLE1=Glücklich
TTITLE2=Träume leben ewig
TTITLE3=Optimist
TTITLE4=Mitten unterm Jahr
TTITLE5=Nie zu spät
TTITLE6=Fieber
TTITLE7=An Sommertagen
TTITLE8=Geh nicht wenn du kommst
TTITLE9=Orchester in mir
TTITLE10=Ich lebe
TTITLE11=Engel fliegen einsam
TTITLE12=Lebe lauter
EXTD=
EXTT0=
EXTT1=
EXTT2=
EXTT3=
EXTT4=
EXTT5=
EXTT6=
EXTT7=
EXTT8=
EXTT9=
EXTT10=
EXTT11=
EXTT12=
PLAYORDER=
